<svg width="15" height="26" viewBox="0 0 15 26" fill="none" xmlns="http://www.w3.org/2000/svg">
<path d="M14.0757 1.0675C14.4272 1.41911 14.6246 1.89594 14.6246 2.39312C14.6246 2.89031 14.4272 3.36713 14.0757 3.71875L4.7944 13L14.0757 22.2813C14.4172 22.6349 14.6062 23.1085 14.6019 23.6001C14.5976 24.0917 14.4005 24.562 14.0528 24.9097C13.7052 25.2573 13.2349 25.4545 12.7433 25.4588C12.2517 25.463 11.778 25.274 11.4244 24.9325L0.817529 14.3256C0.466021 13.974 0.268555 13.4972 0.268555 13C0.268555 12.5028 0.466021 12.026 0.817529 11.6744L11.4244 1.0675C11.776 0.715991 12.2528 0.518524 12.75 0.518524C13.2472 0.518524 13.724 0.715991 14.0757 1.0675V1.0675Z" fill="#F2785C"/>
</svg>
